<?xml version="1.0" encoding="UTF-8"?>
<svg id="Camada_2" data-name="Camada 2" xmlns="http://www.w3.org/2000/svg" viewBox="0 0 3631.33 3667.41">
  <defs>
    <style>
      .cls-1 {
        fill: #82cc96;
      }
    </style>
  </defs>
  <g id="Camada_1-2" data-name="Camada 1">
    <g>
      <path class="cls-1" d="M1821.43,3660.1c57.91-2.65,115.83-5.11,173.76-7.44v-1470.52h-325.04v1485.27c50.42-2.54,100.85-5,151.28-7.31Z"/>
      <path class="cls-1" d="M3592.17,1840.59c-58.89-156.25-177.08-280.82-332.48-350.97-45.07-20.2-91.84-34.65-139.24-44.22,63.77-211.73,9.99-450.04-161.56-616.49-120.96-117.77-282.1-182.61-453.44-182.61-16.58,0-32.74,1.06-49.11,2.34,7.23-168.15-54.42-338.43-186.22-466.4-250.21-242.98-656.88-242.98-906.87,0-121.17,117.56-187.92,274.02-187.92,440.47,0,8.72.85,17.22,1.27,25.94-178.14-11.48-360.54,48.04-496.38,180.27-171.13,166.24-224.91,403.91-161.77,615.21-51.23,9.99-101.4,25.3-149.87,47.41-155.19,71-272.53,196.21-330.35,352.46-58.04,156.67-49.74,325.89,23.17,476.4,72.91,150.51,201.74,264.67,363.09,321,70.36,24.66,143.49,36.99,217.47,36.99,94.6,0,186.22-19.98,272.74-59.52,154.97-71,272.32-196.21,330.35-352.89l15.09-40.82-305.91-106.93-15.09,40.81c-28.49,77.38-86.31,139.03-162.84,174.1-76.53,34.86-162.41,38.9-241.71,11.05-79.51-27.64-143.28-83.97-179.21-158.16-35.93-74.4-39.96-157.74-11.48-235.11,58.89-158.59,238.73-241.49,402.21-185.8,110.97,82.06,245.53,127.12,387.54,127.12,171.55,0,332.69-64.63,453.44-182.18l31.68-30.61-229.8-223.42-31.67,30.83c-59.52,57.82-139.03,89.71-223.64,89.71s-163.9-31.89-223.64-89.71c-59.52-58.04-92.47-135.2-92.47-217.47s32.95-159.44,92.47-217.26c59.74-58.03,139.03-89.92,223.64-89.92,73.34,0,142.64,24.02,198.55,68.03,9.99,11.27,19.98,22.53,31.04,33.16l31.46,30.61,229.8-223.21-8.72-8.5,2.98-2.76-31.68-30.82c-6.38-6.38-13.6-11.69-20.41-17.86-42.94-53.57-66.33-119.05-66.33-188.14,0-82.06,32.95-159.22,92.69-217.26,59.74-58.03,139.03-89.92,223.64-89.92s163.9,31.89,223.64,89.92c59.74,58.04,92.69,135.2,92.69,217.26s-32.95,159.44-92.69,217.47l-31.68,30.61,229.8,223.21,11.69-11.27h.21l31.46-30.61c59.74-58.03,139.24-90.13,223.63-90.13s163.9,32.1,223.64,90.13c59.74,58.04,92.69,135.2,92.69,217.26s-31.68,156.04-89.29,213.64l-5.1,1.91.85,2.55c-59.52,57.61-138.6,89.28-222.79,89.28s-163.9-31.89-223.63-89.92l-31.46-30.83-230.01,223.42,31.68,30.61c120.96,117.56,282.1,182.18,453.44,182.18,144.34,0,281.03-46.34,393.07-130.95,74.4-22.11,153.48-17.01,224.49,14.88,76.74,34.65,134.99,96.09,164.11,173.04,59.95,159.22-24.45,336.09-188.14,394.34-163.9,58.25-345.87-23.6-405.82-182.82l-15.52-40.6-305.06,108.63,15.31,40.82c92.26,244.47,334.39,408.58,602.67,408.58,75.04,0,149.23-12.75,220.23-38.05,331.84-118.2,502.97-476.82,381.37-799.52"/>
    </g>
  </g>
</svg>