<?xml version="1.0" encoding="UTF-8"?>
<svg id="Camada_2" data-name="Camada 2" xmlns="http://www.w3.org/2000/svg" viewBox="0 0 9452.64 2398.83">
  <defs>
    <style>
      .cls-1 {
        fill: #00269e;
      }
    </style>
  </defs>
  <g id="Camada_1-2" data-name="Camada 1">
    <path d="M681.36,1617.35c128.58,0,236.61-44.11,324-132.41,87.43-88.31,131.15-197.56,131.15-327.83s-43.72-239.53-131.15-327.83c-87.39-88.3-195.42-132.46-324-132.46s-239.09,44.15-326.53,132.46c-87.43,88.31-131.15,197.55-131.15,327.83s43.72,239.53,131.15,327.83c87.43,88.3,196.25,132.41,326.53,132.41M709.66,480.84c180,0,333.36,65.58,460.25,196.68,126.84,131.15,190.28,290.99,190.28,479.58s-63.44,348.39-190.28,479.54c-126.88,131.15-280.24,196.73-460.25,196.73-212.58,0-374.6-84.86-485.98-254.59v221.15H0V0h223.68v735.39c111.38-169.68,273.4-254.55,485.98-254.55"/>
    <path d="M2139.26,480.84c150.83,0,271.71,47.55,362.58,142.69,90.79,95.14,136.29,224.16,136.29,387.01v789.38h-223.68v-776.58c0-104.5-28.35-185.49-84.86-242.97-56.6-57.39-134.63-86.13-234.04-86.13-111.43,0-201.43,34.71-269.96,104.16-68.58,69.41-102.85,176.13-102.85,320.13v681.4h-223.68V0h223.68v699.38c90.87-145.65,229.69-218.54,416.53-218.54"/>
    <path d="M3392.77,1385.92c57.39,56.56,130.72,84.86,219.85,84.86s162.41-28.3,219.8-84.86c57.43-56.56,86.17-132.8,86.17-228.82s-28.74-172.3-86.17-228.86c-57.39-56.56-130.72-84.87-219.8-84.87s-162.46,28.3-219.85,84.87c-57.43,56.56-86.13,132.85-86.13,228.86s28.69,172.25,86.13,228.82M3689.78,478.28c169.64,0,314.55,65.58,434.56,196.68,119.96,131.15,179.96,291.87,179.96,482.15s-60,350.95-179.96,482.11c-120,131.15-264.91,196.68-434.56,196.68s-292.3-52.25-383.13-156.84v635.11h-385.7V514.24h385.7v120.87c90.83-104.55,218.54-156.84,383.13-156.84"/>
    <path d="M4844.21,743.11c24.03-82.29,72.41-145.3,145.3-189.02,72.85-43.68,152.97-65.53,240.4-65.53v437.12c-94.27-15.46-182.14.39-263.52,47.55-81.43,47.16-122.18,129.02-122.18,245.54v581.12h-385.7V514.25h385.7v228.86Z"/>
    <path d="M5708.18,1023.38h552.86c-37.75-135.42-128.58-203.13-272.58-203.13s-242.58,67.71-280.28,203.13M5715.88,1311.37c44.54,120.01,147.43,180.01,308.54,180.01,104.55,0,186.84-32.57,246.89-97.75l308.54,177.44c-126.84,176.57-313.68,264.87-560.57,264.87-215.97,0-388.66-64.31-518.07-192.85-129.45-128.58-194.16-290.56-194.16-485.98s63.88-355.26,191.59-484.72c127.62-129.41,291.82-194.11,492.42-194.11,186.75,0,342.38,64.71,466.65,194.11,124.23,129.45,186.45,291,186.45,484.72,0,54.86-5.18,106.29-15.46,154.27h-912.83Z"/>
    <path d="M7121.46,889.65c0,25.73,21.86,46.72,65.57,63.01,43.72,16.33,96.45,32.57,158.1,48.86,61.7,16.33,123.44,37.27,185.14,63.01,61.74,25.73,114.43,68.1,158.1,127.27,43.72,59.13,65.57,133.28,65.57,222.42,0,138.86-51.42,243.84-154.23,314.99-102.89,71.1-229.73,106.73-380.56,106.73-255.51,0-433.86-90.7-535.36-272.19-6.1-10.93-7.27-14.15-7.62-14.5l328.75-185.97s.44.96.13-.44c44.02,84.52,110.38,128.54,214.1,128.54,92.53,0,138.81-26.61,138.81-79.73,0-25.73-21.86-47.11-65.57-64.31-43.67-17.11-96.36-33.79-158.1-50.12-61.7-16.24-123.44-37.71-185.14-64.27-61.74-26.56-114.39-68.14-158.1-124.71-43.72-56.56-65.58-126.01-65.58-208.26,0-133.72,48.38-237.44,145.3-311.16,96.75-73.67,216.36-110.55,358.66-110.55,106.29,0,203.13,23.6,290.56,70.71,87.43,47.16,157.67,115.3,210.83,204.39l-329.14,177.43c-41.15-75.42-98.54-113.12-172.25-113.12s-107.98,24.04-107.98,71.97"/>
    <path class="cls-1" d="M8478.24,2398.83v-350.6c343.94,0,623.79-279.81,623.79-623.79h350.61c0,537.28-437.12,974.4-974.4,974.4"/>
    <path d="M8241.46,889.65c0,25.73,21.86,46.72,65.57,63.01,43.72,16.33,96.45,32.57,158.1,48.86,61.7,16.33,123.44,37.27,185.14,63.01,61.74,25.73,114.43,68.1,158.15,127.27,43.67,59.13,65.53,133.28,65.53,222.42,0,138.86-51.42,243.84-154.23,314.99-102.89,71.1-229.73,106.73-380.56,106.73-255.51,0-433.86-90.7-535.36-272.19-6.1-10.93-7.27-14.15-7.62-14.5l328.75-185.97s.44.96.13-.44c44.02,84.52,110.38,128.54,214.1,128.54,92.53,0,138.81-26.61,138.81-79.73,0-25.73-21.86-47.11-65.53-64.31-43.72-17.11-96.4-33.79-158.15-50.12-61.7-16.24-123.44-37.71-185.14-64.27-61.74-26.56-114.39-68.14-158.1-124.71-43.72-56.56-65.58-126.01-65.58-208.26,0-133.72,48.38-237.44,145.3-311.16,96.75-73.67,216.36-110.55,358.66-110.55,106.29,0,203.13,23.6,290.56,70.71,87.43,47.16,157.67,115.3,210.88,204.39l-329.18,177.43c-41.15-75.42-98.54-113.12-172.25-113.12s-107.98,24.04-107.98,71.97"/>
  </g>
</svg>