<svg width="49" height="49" viewBox="0 0 49 49" fill="none" xmlns="http://www.w3.org/2000/svg">
<path d="M24.5 0C18.0022 0 11.7705 2.58124 7.17588 7.17588C2.58124 11.7705 0 18.0022 0 24.5C0 30.9978 2.58124 37.2295 7.17588 41.8241C11.7705 46.4188 18.0022 49 24.5 49C30.9978 49 37.2295 46.4188 41.8241 41.8241C46.4188 37.2295 49 30.9978 49 24.5C49 18.0022 46.4188 11.7705 41.8241 7.17588C37.2295 2.58124 30.9978 0 24.5 0ZM32.4489 33.5922C32.4489 34.545 32.83 35.3072 33.4289 35.3889C34.0278 35.4706 34.7083 34.79 35.0078 33.7556L35.5522 33.9733C36.5006 34.4802 37.2456 35.2982 37.6621 36.2896C38.0785 37.2811 38.1409 38.3857 37.8389 39.4178C37.6388 40.3337 37.1449 41.1592 36.4323 41.7686C35.7197 42.378 34.8276 42.7378 33.8917 42.7933C32.5578 39.4994 28.1478 42.9567 24.2006 42.1944C23.3799 41.9879 22.6217 41.5852 21.991 41.021C21.3604 40.4567 20.8762 39.7477 20.58 38.955C23.8194 38.6556 28.3383 34.2456 32.4489 33.5922ZM21.7778 30.6794C22.987 30.6775 24.1546 30.2382 25.0652 29.4427C25.9758 28.6472 26.5679 27.5491 26.7322 26.3511C27.3095 27.0636 27.6084 27.9615 27.5733 28.8778C27.5383 29.7941 27.1717 30.6665 26.5417 31.3328C26.1987 31.6331 25.7953 31.8562 25.3587 31.9872C24.9221 32.1182 24.4624 32.1539 24.0108 32.092C23.5592 32.03 23.1261 31.8719 22.7409 31.6282C22.3557 31.3845 22.0272 31.061 21.7778 30.6794ZM29.9444 28.6106C31.0606 29.6722 38.1111 28.4472 39.5267 31.5778C36.9406 31.0333 31.4961 33.2383 30.0806 28.6378L29.9444 28.6106ZM26.4872 14.8361V15.5711C24.7178 13.475 22.8667 12.6583 22.1044 14.0194C21.3422 15.3806 24.8267 17.0411 24.1733 19.1372C23.52 21.2333 20.7161 20.6617 19.0556 23.52C17.395 26.3783 17.7217 30.1078 22.4311 33.5106C20.8431 33.3345 19.3415 32.6965 18.1125 31.6755C16.8835 30.6546 15.9809 29.2955 15.5167 27.7667C14.4278 24.5 15.2717 21.6144 13.3933 21.07C10.8889 20.3078 8.16667 23.7106 8.16667 26.6778C4.73667 23.2478 8.30278 18.8922 4.9 15.2989C7.13716 10.5353 11.0454 6.75894 15.8828 4.68645C20.7203 2.61397 26.1503 2.38967 31.1422 4.05611C29.6593 5.43044 28.4794 7.09901 27.6778 8.95519C26.8763 10.8114 26.4708 12.8143 26.4872 14.8361Z" fill="white"/>
</svg>
